<svg xmlns="http://www.w3.org/2000/svg" width="48" height="36" viewBox="0 0 48 36">
    <defs>
        <linearGradient id="a" x1="56.989%" x2="35.593%" y1="100%" y2="37.793%">
            <stop offset="0%" stop-color="#8065AB"/>
            <stop offset="100%" stop-color="#402671"/>
        </linearGradient>
        <linearGradient id="b" x1=".001%" y1="50%" y2="50%">
            <stop offset="0%" stop-color="#77C6AC"/>
            <stop offset="100%" stop-color="#05A790"/>
        </linearGradient>
        <linearGradient id="c" x1=".001%" y1="49.999%" y2="49.999%">
            <stop offset="0%" stop-color="#77C6AC"/>
            <stop offset="100%" stop-color="#05A790"/>
        </linearGradient>
    </defs>
    <g fill="none" fill-rule="evenodd">
        <path fill="url(#a)" d="M18.443 11.561l3.051 18.02c.575 3.396 3.34 5.89 6.628 6.309a7.826 7.826 0 0 0 2.266-.044c4.208-.695 7.049-4.625 6.345-8.78L34.317 12.8a11.425 11.425 0 0 0-4.696-7.42 11.687 11.687 0 0 0-6.503-2.122c-3.258 1.324-5.28 4.728-4.675 8.303"/>
        <path fill="url(#b)" d="M20.982 3.41L6.538 5.793c-4.208.694-7.049 4.625-6.346 8.78.576 3.395 3.34 5.89 6.628 6.308a7.825 7.825 0 0 0 2.266-.043l18.25-3.013c4.21-.695 8.19 2.11 8.893 6.265l-1.911-11.29a11.426 11.426 0 0 0-4.697-7.42 11.69 11.69 0 0 0-8.64-1.972"/>
        <path fill="url(#c)" d="M38.075 1.238a5.893 5.893 0 0 0-1.09 8.335c2.032 2.6 5.812 3.08 8.443 1.076a5.893 5.893 0 0 0 1.09-8.336A6.037 6.037 0 0 0 41.748 0a6.042 6.042 0 0 0-3.673 1.238"/>
    </g>
</svg>
